<svg width="24" height="24" viewBox="0 0 24 24" fill="none" xmlns="http://www.w3.org/2000/svg">
<path d="M19.0254 12V18C19.0254 18.552 18.5774 19 18.0254 19C17.4734 19 17.0254 18.552 17.0254 18V12C17.0254 11.448 17.4734 11 18.0254 11C18.5774 11 19.0254 11.448 19.0254 12ZM11.6054 6.717L14.6764 17.746C14.8514 18.376 14.3784 19 13.7234 19C13.2804 19 12.8924 18.706 12.7714 18.28L12.1284 16H6.92239L6.27939 18.28C6.15939 18.706 5.77039 19 5.32739 19C4.67339 19 4.19939 18.376 4.37439 17.746L7.46539 6.638C7.60639 6.03 8.00639 5.518 8.56339 5.233C9.13139 4.941 9.78339 4.923 10.4024 5.183C10.9894 5.429 11.4394 6 11.6064 6.718L11.6054 6.717ZM11.5644 14L9.63539 7.165C9.60639 7.051 9.44439 7.051 9.41639 7.165L7.48739 14H11.5644ZM23.0264 10C22.4744 10 22.0264 10.448 22.0264 11V19C22.0264 20.654 20.6804 22 19.0264 22H5.02539C3.37139 22 2.02539 20.654 2.02539 19V5C2.02539 3.346 3.37139 2 5.02539 2H13.0254C13.5774 2 14.0254 1.552 14.0254 1C14.0254 0.448 13.5774 0 13.0254 0H5.02539C2.26839 0 0.0253906 2.243 0.0253906 5V19C0.0253906 21.757 2.26839 24 5.02539 24H19.0254C21.7824 24 24.0254 21.757 24.0254 19V11C24.0254 10.448 23.5774 10 23.0254 10H23.0264ZM16.1764 5.18L18.0444 5.967L18.7894 7.832C18.9504 8.236 19.3414 8.5 19.7764 8.5C20.2114 8.5 20.6014 8.235 20.7634 7.832L21.5044 5.978L23.3584 5.237C23.7624 5.076 24.0264 4.685 24.0264 4.25C24.0264 3.815 23.7614 3.425 23.3584 3.263L21.5044 2.522L20.7634 0.668C20.6004 0.265 20.2094 0 19.7754 0C19.3414 0 18.9504 0.265 18.7884 0.668L18.0514 2.511L16.2114 3.208C15.8054 3.362 15.5334 3.748 15.5254 4.182C15.5174 4.617 15.7754 5.012 16.1754 5.181L16.1764 5.18Z" fill="black"/>
</svg>
