<svg width="24" height="24" viewBox="0 0 24 24" fill="none" xmlns="http://www.w3.org/2000/svg">
<g clip-path="url(#clip0_407_1747)">
<path d="M13 11H21C22.654 11 24 9.654 24 8V5C24 3.346 22.654 2 21 2H18.414L17 0.586C16.622 0.208 16.12 0 15.586 0H13C11.346 0 10 1.346 10 3V5H2V1C2 0.447 1.552 0 1 0C0.448 0 0 0.447 0 1V15C0 17.757 2.243 20 5 20H10V21C10 22.654 11.346 24 13 24H21C22.654 24 24 22.654 24 21V18C24 16.346 22.654 15 21 15H18.414L17 13.586C16.622 13.208 16.12 13 15.586 13H13C11.346 13 10 14.346 10 16V18H5C3.346 18 2 16.654 2 15V7H10V8C10 9.654 11.346 11 13 11ZM12 16C12 15.448 12.449 15 13 15H15.586L17 16.414C17.378 16.792 17.88 17 18.414 17H21C21.551 17 22 17.448 22 18V21C22 21.552 21.551 22 21 22H13C12.449 22 12 21.552 12 21V16ZM12 3C12 2.448 12.449 2 13 2H15.586L17 3.414C17.378 3.792 17.88 4 18.414 4H21C21.551 4 22 4.448 22 5V8C22 8.552 21.551 9 21 9H13C12.449 9 12 8.552 12 8V3Z" fill="black"/>
</g>
<defs>
<clipPath id="clip0_407_1747">
<rect width="24" height="24" fill="white"/>
</clipPath>
</defs>
</svg>
