<svg width="24" height="24" viewBox="0 0 24 24" fill="none" xmlns="http://www.w3.org/2000/svg">
<path d="M19 3.00095H12.472C12.318 3.00095 12.162 2.96495 12.025 2.89595L8.872 1.31995C8.457 1.11195 7.993 1.00195 7.528 1.00195H5C2.243 1.00095 0 3.24395 0 6.00095V18.001C0 20.758 2.243 23.001 5 23.001H8C8.552 23.001 9 22.554 9 22.001C9 21.448 8.552 21.001 8 21.001H5C3.346 21.001 2 19.655 2 18.001V9.00095H22V18.001C22 19.655 20.654 21.001 19 21.001H16C15.448 21.001 15 21.448 15 22.001C15 22.554 15.448 23.001 16 23.001H19C21.757 23.001 24 20.758 24 18.001V8.00095C24 5.24395 21.757 3.00095 19 3.00095ZM2 6.00095C2 4.34695 3.346 3.00095 5 3.00095H7.528C7.682 3.00095 7.836 3.03695 7.975 3.10695L11.131 4.68395C11.546 4.89095 12.009 4.99995 12.472 4.99995H19C20.302 4.99995 21.402 5.83895 21.816 6.99995H2V6.00095ZM14.293 15.897L13 14.604V22.001C13 22.554 12.552 23.001 12 23.001C11.448 23.001 11 22.554 11 22.001V14.604L9.707 15.897C9.512 16.092 9.256 16.19 9 16.19C8.744 16.19 8.488 16.092 8.293 15.897C7.902 15.506 7.902 14.874 8.293 14.483L9.906 12.87C11.024 11.751 12.975 11.751 14.094 12.87L15.707 14.483C16.098 14.874 16.098 15.506 15.707 15.897C15.316 16.288 14.684 16.288 14.293 15.897Z" fill="black"/>
</svg>
