<svg width="38" height="38" viewBox="0 0 38 38" fill="none" xmlns="http://www.w3.org/2000/svg">
<path d="M33.25 19H28.5C26.7536 19 25.3333 20.4202 25.3333 22.1667C25.3333 23.9131 23.9131 25.3333 22.1667 25.3333H15.8333C14.0869 25.3333 12.6667 23.9131 12.6667 22.1667C12.6667 20.4202 11.2464 19 9.5 19H4.75C2.13117 19 0 21.1312 0 23.75V30.0833C0 34.4486 3.55142 38 7.91667 38H30.0833C34.4486 38 38 34.4486 38 30.0833V23.75C38 21.1312 35.8688 19 33.25 19ZM34.8333 30.0833C34.8333 32.7022 32.7022 34.8333 30.0833 34.8333H7.91667C5.29783 34.8333 3.16667 32.7022 3.16667 30.0833V23.75C3.16667 22.876 3.876 22.1667 4.75 22.1667L9.5 22.1635V22.1667C9.5 25.6595 12.3405 28.5 15.8333 28.5H22.1667C25.6595 28.5 28.5 25.6595 28.5 22.1667H33.25C34.124 22.1667 34.8333 22.876 34.8333 23.75V30.0833ZM11.5473 11.2749C10.9282 10.6558 10.9282 9.65517 11.5473 9.03608C12.1663 8.417 13.167 8.417 13.7861 9.03608L17.4167 12.6667V1.58333C17.4167 0.70775 18.1244 0 19 0C19.8756 0 20.5833 0.70775 20.5833 1.58333V12.6667L24.2139 9.03608C24.833 8.417 25.8337 8.417 26.4528 9.03608C27.0718 9.65517 27.0718 10.6558 26.4528 11.2749L21.2388 16.4888C20.6261 17.1016 19.8202 17.4103 19.0142 17.4135L19 17.4167L18.9858 17.4135C18.1798 17.4103 17.3739 17.1016 16.7612 16.4888L11.5473 11.2749Z" fill="black"/>
</svg>
