<svg width="38" height="38" viewBox="0 0 38 38" fill="none" xmlns="http://www.w3.org/2000/svg">
<g clip-path="url(#clip0_382_16)">
<path d="M18.2084 10.2917C18.2084 8.10508 19.9801 6.33333 22.1667 6.33333C24.3533 6.33333 26.125 8.10508 26.125 10.2917C26.125 12.4783 24.3533 14.25 22.1667 14.25C19.9801 14.25 18.2084 12.4783 18.2084 10.2917ZM15.6814 21.9371C16.4287 22.3915 17.404 22.1524 17.8569 21.4051C18.7419 19.9453 20.4329 19 22.1667 19C23.9004 19 25.5914 19.9437 26.4765 21.4051C26.7742 21.8959 27.2983 22.1667 27.8319 22.1667C28.1121 22.1667 28.3939 22.0922 28.652 21.9371C29.3994 21.4842 29.6384 20.5105 29.1856 19.7616C27.7147 17.3375 25.0262 15.8333 22.1667 15.8333C19.3072 15.8333 16.6187 17.3391 15.1478 19.7616C14.6949 20.5105 14.934 21.4827 15.6814 21.9371ZM34.8334 7.91667V30.0833C34.8334 34.4486 31.2819 38 26.9167 38H9.50002C6.00719 38 3.16669 35.1595 3.16669 31.6667V7.91667C3.16669 3.55142 6.7181 0 11.0834 0H26.9167C31.2819 0 34.8334 3.55142 34.8334 7.91667ZM26.9167 3.16667H12.6667V25.3333H31.6667V7.91667C31.6667 5.29783 29.5355 3.16667 26.9167 3.16667ZM6.33335 7.91667V26.2137C7.2691 25.669 8.34102 25.3333 9.50002 25.3333V3.458C7.66177 4.1135 6.33335 5.85517 6.33335 7.91667ZM31.6667 30.0833V28.5H9.50002C7.7536 28.5 6.33335 29.9202 6.33335 31.6667C6.33335 33.4131 7.7536 34.8333 9.50002 34.8333H26.9167C29.5355 34.8333 31.6667 32.7022 31.6667 30.0833Z" fill="#007F26"/>
</g>
<defs>
<clipPath id="clip0_382_16">
<rect width="38" height="38" fill="white"/>
</clipPath>
</defs>
</svg>
