<svg xmlns="http://www.w3.org/2000/svg" width="24" height="24" viewBox="0 0 24 24" fill="none">
  <g clip-path="url(#clip0_548_1443)">
    <path d="M3 17C3.553 17 4 16.553 4 16C4 15.447 4.448 15 5 15H11V16C11 16.553 11.447 17 12 17C12.553 17 13 16.553 13 16V15H19C19.552 15 20 15.448 20 16C20 16.552 20.447 17 21 17C21.553 17 22 16.553 22 16C22 14.346 20.654 13 19 13H13V11.899C14.08 11.679 15.035 11.109 15.74 10.314L16.696 10.866C16.853 10.957 17.025 11 17.195 11C17.541 11 17.877 10.821 18.062 10.5C18.338 10.021 18.174 9.40995 17.696 9.13395L16.743 8.58395C16.91 8.08595 17 7.55395 17 7.00095C17 6.44795 16.909 5.91495 16.743 5.41795L17.696 4.86795C18.175 4.59195 18.339 3.97995 18.062 3.50195C17.785 3.02295 17.172 2.85895 16.696 3.13595L15.74 3.68795C15.034 2.89295 14.08 2.32295 13 2.10295V1.00195C13 0.449953 12.553 0.00195312 12 0.00195312C11.447 0.00195312 11 0.449953 11 1.00195V2.10295C9.92 2.32295 8.965 2.89295 8.26 3.68795L7.304 3.13595C6.825 2.85895 6.214 3.02295 5.938 3.50195C5.662 3.98095 5.826 4.59195 6.304 4.86795L7.257 5.41795C7.09 5.91595 7 6.44795 7 7.00095C7 7.55395 7.091 8.08695 7.257 8.58395L6.304 9.13395C5.825 9.40995 5.661 10.022 5.938 10.5C6.124 10.821 6.459 11 6.805 11C6.975 11 7.147 10.957 7.304 10.866L8.26 10.314C8.966 11.109 9.92 11.679 11 11.899V13H5C3.346 13 2 14.346 2 16C2 16.553 2.447 17 3 17ZM9 6.99995C9 5.34595 10.346 3.99995 12 3.99995C13.654 3.99995 15 5.34595 15 6.99995C15 8.65395 13.654 9.99995 12 9.99995C10.346 9.99995 9 8.65395 9 6.99995ZM13 18H11C9.897 18 9 18.897 9 20V22C9 23.103 9.897 24 11 24H13C14.103 24 15 23.103 15 22V20C15 18.897 14.103 18 13 18ZM13 22H11V20H13V22ZM22 18H20C18.897 18 18 18.897 18 20V22C18 23.103 18.897 24 20 24H22C23.103 24 24 23.103 24 22V20C24 18.897 23.103 18 22 18ZM22 22H20V20H22V22ZM4 18H2C0.897 18 0 18.897 0 20V22C0 23.103 0.897 24 2 24H4C5.103 24 6 23.103 6 22V20C6 18.897 5.103 18 4 18ZM4 22H2V20H4V22Z" fill="black"/>
  </g>
  <defs>
    <clipPath id="clip0_548_1443">
      <rect width="24" height="24" fill="white"/>
    </clipPath>
  </defs>
</svg>
